<?xml version="1.0" encoding="utf-8"?>
<!-- Generator: Adobe Illustrator 19.2.0, SVG Export Plug-In . SVG Version: 6.00 Build 0)  -->
<svg version="1.1" xmlns="http://www.w3.org/2000/svg" xmlns:xlink="http://www.w3.org/1999/xlink" x="0px" y="0px"
	 viewBox="0 0 373.4 122.8" style="enable-background:new 0 0 373.4 122.8;" xml:space="preserve">
<style type="text/css">
	.st0{display:none;}
	.st1{display:inline;fill:none;stroke:#00FF00;stroke-miterlimit:10;}
	.st2{fill:#01467F;}
	.st3{font-family:'RBNo3.1-Bold';}
	.st4{font-size:30.4903px;}
	.st5{fill:#0071BC;}
</style>
<g id="Layer_2" class="st0">
	<polyline id="XMLID_2_" class="st1" points="208,-10.5 227.5,-10.5 227.5,7.5 162.6,7.5 162.4,-10.5 183,-10.5 	"/>
	<polyline id="XMLID_4_" class="st1" points="236.5,-7 236.5,-21.5 151.5,-21.5 151.5,-7 	"/>
	<line id="XMLID_5_" class="st1" x1="194.5" y1="-5" x2="194.5" y2="-22"/>
	<line id="XMLID_6_" class="st1" x1="194.5" y1="0" x2="194.5" y2="7"/>
	<polyline id="XMLID_9_" class="st1" points="214.5,-35 214.5,-28.5 244.5,-28.5 244.5,25.5 173,25.5 	"/>
	<polyline id="XMLID_3_" class="st1" points="236.5,-2 236.5,17.5 194.5,17.5 194.5,25 	"/>
	<polyline id="XMLID_10_" class="st1" points="189,17.5 151.5,17.5 151.5,-2 	"/>
	<polyline id="XMLID_12_" class="st1" points="168,25.5 144.5,25.5 144.5,-28.5 210,-28.5 	"/>
	<polyline id="XMLID_11_" class="st1" points="252.5,10 252.5,-35.5 194,-35.5 	"/>
	<polyline id="XMLID_13_" class="st1" points="187,-35.5 136.5,-35.5 136.5,10 	"/>
	<polyline id="XMLID_15_" class="st1" points="136.5,17 136.5,32.5 252.5,32.5 252.5,16 	"/>
	<polyline id="XMLID_14_" class="st1" points="154,38.5 130.5,38.5 130.5,-41.5 258.5,-41.5 258.5,40.5 169,40.5 150.5,60 	"/>
</g>
<g id="Layer_3">
	<text id="XMLID_1_" transform="matrix(1 0 0 1 167.0879 65.6118)"><tspan x="0" y="0" class="st2 st3 st4">TULSA</tspan><tspan x="83" y="0" class="st5 st3 st4">WEB</tspan><tspan x="140.3" y="0" class="st2 st3 st4">DEVS</tspan></text>
</g>
<g id="Layer_4">
	<path id="XMLID_22_" class="st2" d="M104.1,39H101v3h3.1c1.9,0,3.9,1.6,3.9,3.5v9c0,1.9-2,3.5-3.9,3.5H76v-6h-3v6H45.9
		C44,58,42,56.4,42,54.5v-9c0-1.9,2-3.5,3.9-3.5H49v-3h-3.1c-3.6,0-6.9,2.9-6.9,6.5v9c0,3.6,3.4,6.5,6.9,6.5h58.1
		c3.6,0,6.9-2.9,6.9-6.5v-9C111,41.9,107.6,39,104.1,39z"/>
	<path id="XMLID_32_" class="st5" d="M109.6,0H40.4C18.1,0,0,18.1,0,40.5v19C0,81.9,18.1,100,40.4,100H44v-3h-3.6
		C19.8,97,3,80.2,3,59.5v-19C3,19.8,19.8,3,40.4,3h69.1C130.2,3,147,19.8,147,40.5v19c0,20.7-16.8,37.5-37.4,37.5H60v0l-21,23.8
		l2.2,2L61.4,100h48.2c22.3,0,40.4-18.1,40.4-40.5v-19C150,18.1,131.9,0,109.6,0z"/>
	<path id="XMLID_30_" class="st2" d="M121.7,35.9c-1.3-6.1-6.5-10.9-12.9-10.9H76h-3H49h-1c-1,0-2,0-3,0h-2h-1.8
		C33.8,25,28,31.3,28,38.8V42h3v-3.2C31,33,35.5,28,41.2,28H73v17h3V28h32.8c4.9,0,8.8,3.5,9.9,8c-2.4,0.8-4.1,3-4.1,5.6
		c0,3.3,2.7,5.9,5.9,5.9s5.9-2.7,5.9-5.9C126.4,38.8,124.4,36.4,121.7,35.9z M120.5,44.6c-1.6,0-2.9-1.3-2.9-2.9s1.3-2.9,2.9-2.9
		s2.9,1.3,2.9,2.9S122.1,44.6,120.5,44.6z"/>
	<path id="XMLID_31_" class="st2" d="M59.5,67.8c-2.7,0-5,1.8-5.7,4.2H48c0,1.1,0,1.9,0,3h5.7c0.6,2.6,3,4.6,5.8,4.6
		c3.3,0,5.9-2.7,5.9-5.9S62.8,67.8,59.5,67.8z M59.5,76.6c-1.6,0-2.9-1.3-2.9-2.9s1.3-2.9,2.9-2.9s2.9,1.3,2.9,2.9
		S61.1,76.6,59.5,76.6z"/>
	<path id="XMLID_34_" class="st5" d="M39.5,85C27.1,85,17,74.7,17,62.3V59h11v2.2c0,6.3,4,11.8,10,13.3v-3.1c-4-1.5-7-5.5-7-10.2V56
		H17V37.7c0-9.1,5.3-16.9,13.1-20.5c1,2,3,3.4,5.4,3.4c3.3,0,5.9-2.7,5.9-5.9s-2.7-5.9-5.9-5.9c-3.1,0-5.7,2.5-5.9,5.5
		C20.6,18.2,14,27.2,14,37.7v24.6C14,76.4,25.4,88,39.5,88H45c0-1,0-2.3,0-3H39.5z M35.5,11.8c1.6,0,2.9,1.3,2.9,2.9
		s-1.3,2.9-2.9,2.9s-2.9-1.3-2.9-2.9S33.9,11.8,35.5,11.8z"/>
	<path id="XMLID_20_" class="st2" d="M110.5,12H51v3h59.5c12.4,0,22.5,10.3,22.5,22.7V55v1c0,1.1,0,1.9,0,3v1v2.3
		c0,12.4-10.1,22.7-22.5,22.7H48v-9v-1c0-1.1,0-1.9,0-3h-3v3v10c0,0.7,0,2,0,3h65.5c14.1,0,25.5-11.6,25.5-25.7V37.7
		C136,23.6,124.6,12,110.5,12z"/>
	<path id="XMLID_19_" class="st5" d="M119,56v3v2.2c0,5.8-4.5,10.8-10.2,10.8H72v3h36.8c7.4,0,13.2-6.3,13.2-13.8V59h11
		c0-1.1,0-1.9,0-3H119z"/>
</g>
<g id="Layer_5">
</g>
</svg>
